<svg xmlns="http://www.w3.org/2000/svg" width="24" height="24" fill="none" viewBox="0 0 24 24" id="starred">
  <path fill="#000" fill-rule="evenodd" d="M14.2451 8.90983L12 2L9.75486 8.90983H2.48943L8.36729 13.1803L6.12215 20.0902L12 15.8197L17.8779 20.0902L15.6327 13.1803L21.5106 8.90983H14.2451ZM18.4329 9.90983H14.2451C13.8119 9.90983 13.428 9.63087 13.2941 9.21885L12 5.23607L10.7059 9.21885C10.572 9.63087 10.1881 9.90983 9.75486 9.90983H5.56712L8.95507 12.3713C9.30556 12.626 9.45222 13.0773 9.31834 13.4894L8.02426 17.4721L11.4122 15.0106C11.7627 14.756 12.2373 14.756 12.5878 15.0106L15.9757 17.4721L14.6817 13.4894C14.5478 13.0773 14.6944 12.626 15.0449 12.3713L18.4329 9.90983Z" clip-rule="evenodd"></path>
</svg>
