<svg xmlns="http://www.w3.org/2000/svg" enable-background="new 0 0 32 32" viewBox="0 0 32 32" id="tag">
  <path d="M30.707,17.293l-16-16C14.52,1.105,14.266,1,14,1H2C1.447,1,1,1.447,1,2v12c0,0.266,0.105,0.52,0.293,0.707l16,16C17.488,30.902,17.744,31,18,31s0.512-0.098,0.707-0.293l12-12C31.098,18.316,31.098,17.684,30.707,17.293z M18,28.586l-15-15V3h10.586l15,15L18,28.586z"></path>
  <path d="M8,5C6.346,5,5,6.346,5,8s1.346,3,3,3s3-1.346,3-3S9.654,5,8,5z M8,9C7.448,9,7,8.552,7,8s0.448-1,1-1s1,0.448,1,1S8.552,9,8,9z"></path>
</svg>
